<?xml version="1.0" standalone="no"?>
<!DOCTYPE svg PUBLIC "-//W3C//DTD SVG 20010904//EN"
 "http://www.w3.org/TR/2001/REC-SVG-20010904/DTD/svg10.dtd">
<svg version="1.0" xmlns="http://www.w3.org/2000/svg"
 width="94.000000pt" height="94.000000pt" viewBox="0 0 94.000000 94.000000"
 preserveAspectRatio="xMidYMid meet">
<metadata>
Created by potrace 1.14, written by Peter Selinger 2001-2017
</metadata>
<g transform="translate(0.000000,94.000000) scale(0.100000,-0.100000)"
fill="#000000" stroke="none">
<path d="M472 802 c-7 -9 -10 -11 -6 -4 5 11 2 11 -14 1 -12 -7 -23 -22 -26
-34 -6 -19 -8 -18 -33 10 -20 22 -37 31 -60 31 -17 0 -29 -4 -27 -8 3 -5 -2
-11 -10 -14 -9 -3 -14 -10 -11 -14 3 -4 -2 -13 -10 -20 -12 -10 -12 -15 3 -38
13 -21 14 -24 2 -17 -13 8 -13 7 -1 -8 7 -9 9 -17 3 -17 -5 0 -12 -9 -15 -20
-6 -24 -25 -25 -63 -5 -34 18 -54 19 -54 4 0 -5 -4 -8 -8 -5 -5 3 -16 -13 -26
-34 -10 -22 -22 -40 -27 -40 -6 0 -8 -4 -5 -9 4 -5 1 -11 -6 -13 -13 -5 -22
-138 -10 -138 4 0 7 -19 7 -42 0 -42 17 -92 36 -103 5 -4 7 -11 4 -16 -4 -5
-1 -9 6 -9 7 0 9 -3 6 -7 -4 -3 0 -17 8 -30 9 -13 12 -23 8 -23 -4 0 4 -8 17
-17 14 -10 28 -17 33 -15 4 1 7 -3 7 -9 0 -5 4 -8 8 -5 5 3 19 -1 33 -8 40
-20 61 -27 54 -16 -3 6 0 10 7 11 7 0 22 3 33 5 11 3 29 5 39 5 11 0 28 5 39
10 15 9 18 8 11 -3 -6 -10 -5 -11 8 -1 8 7 18 10 21 6 4 -3 7 0 7 7 0 7 3 10
7 7 3 -4 12 -2 20 5 7 6 16 8 19 5 4 -3 13 1 21 9 8 8 19 11 25 8 7 -4 8 -2 4
4 -10 16 44 98 56 86 3 -2 11 2 18 11 8 10 17 12 29 5 13 -7 27 -1 56 26 21
19 35 34 31 34 -5 0 -2 8 5 17 11 13 11 15 1 9 -11 -7 -11 -4 -1 12 10 16 18
18 41 11 16 -4 26 -4 24 0 -6 9 42 33 53 27 4 -3 6 7 6 22 -1 15 3 33 8 40 8
9 5 11 -9 5 -17 -6 -18 -5 -4 12 12 15 12 17 1 10 -11 -6 -13 -2 -9 19 3 14 1
29 -4 32 -6 4 -5 10 3 15 9 6 10 9 2 9 -6 0 -10 8 -8 18 1 9 -2 22 -7 29 -5 7
-5 14 2 18 6 3 7 12 3 18 -4 7 -8 17 -9 22 -3 25 -17 55 -26 55 -5 0 -6 5 -3
10 3 6 1 10 -5 10 -6 0 -18 6 -26 13 -8 6 -20 17 -27 22 -14 12 -96 14 -94 2
1 -5 -14 -14 -34 -21 -33 -12 -60 -7 -79 15 -11 13 -40 17 -46 7 -5 -7 -8 -7
-13 1 -4 6 -11 4 -19 -7z"/>
</g>
</svg>
